<svg width="19" height="20" viewBox="0 0 19 20" fill="none" xmlns="http://www.w3.org/2000/svg">
<path d="M0 18.125C0 19.1602 0.878002 20 1.96019 20H16.3349C17.4171 20 18.2951 19.1602 18.2951 18.125V7.5H0V18.125ZM13.0679 10.4688C13.0679 10.2109 13.2884 10 13.558 10H15.1915C15.461 10 15.6815 10.2109 15.6815 10.4688V12.0312C15.6815 12.2891 15.461 12.5 15.1915 12.5H13.558C13.2884 12.5 13.0679 12.2891 13.0679 12.0312V10.4688ZM13.0679 15.4688C13.0679 15.2109 13.2884 15 13.558 15H15.1915C15.461 15 15.6815 15.2109 15.6815 15.4688V17.0312C15.6815 17.2891 15.461 17.5 15.1915 17.5H13.558C13.2884 17.5 13.0679 17.2891 13.0679 17.0312V15.4688ZM7.84076 10.4688C7.84076 10.2109 8.06128 10 8.3308 10H9.96429C10.2338 10 10.4543 10.2109 10.4543 10.4688V12.0312C10.4543 12.2891 10.2338 12.5 9.96429 12.5H8.3308C8.06128 12.5 7.84076 12.2891 7.84076 12.0312V10.4688ZM7.84076 15.4688C7.84076 15.2109 8.06128 15 8.3308 15H9.96429C10.2338 15 10.4543 15.2109 10.4543 15.4688V17.0312C10.4543 17.2891 10.2338 17.5 9.96429 17.5H8.3308C8.06128 17.5 7.84076 17.2891 7.84076 17.0312V15.4688ZM2.61359 10.4688C2.61359 10.2109 2.83411 10 3.10363 10H4.73712C5.00665 10 5.22717 10.2109 5.22717 10.4688V12.0312C5.22717 12.2891 5.00665 12.5 4.73712 12.5H3.10363C2.83411 12.5 2.61359 12.2891 2.61359 12.0312V10.4688ZM2.61359 15.4688C2.61359 15.2109 2.83411 15 3.10363 15H4.73712C5.00665 15 5.22717 15.2109 5.22717 15.4688V17.0312C5.22717 17.2891 5.00665 17.5 4.73712 17.5H3.10363C2.83411 17.5 2.61359 17.2891 2.61359 17.0312V15.4688ZM16.3349 2.5H14.3747V0.625C14.3747 0.28125 14.0807 0 13.7213 0H12.4145C12.0552 0 11.7611 0.28125 11.7611 0.625V2.5H6.53396V0.625C6.53396 0.28125 6.23994 0 5.88057 0H4.57377C4.21441 0 3.92038 0.28125 3.92038 0.625V2.5H1.96019C0.878002 2.5 0 3.33984 0 4.375V6.25H18.2951V4.375C18.2951 3.33984 17.4171 2.5 16.3349 2.5Z" fill="#555555"/>
</svg>
