
<svg width="22" height="24" viewBox="0 0 22 24" fill="none" xmlns="http://www.w3.org/2000/svg">
<path d="M11 0.55589C4.92339 0.55589 0 5.76989 0 12.2052C0 18.6405 4.92339 23.8545 11 23.8545C17.0766 23.8545 22 18.6405 22 12.2052C22 5.76989 17.0766 0.55589 11 0.55589ZM11 5.06529C13.1556 5.06529 14.9032 6.91603 14.9032 9.19892C14.9032 11.4818 13.1556 13.3325 11 13.3325C8.84435 13.3325 7.09677 11.4818 7.09677 9.19892C7.09677 6.91603 8.84435 5.06529 11 5.06529ZM11 21.224C8.39637 21.224 6.06331 19.9745 4.50202 18.0204C5.33589 16.3576 6.96815 15.2115 8.87097 15.2115C8.97742 15.2115 9.08387 15.2302 9.18589 15.2631C9.7625 15.4604 10.3657 15.5872 11 15.5872C11.6343 15.5872 12.2419 15.4604 12.8141 15.2631C12.9161 15.2302 13.0226 15.2115 13.129 15.2115C15.0319 15.2115 16.6641 16.3576 17.498 18.0204C15.9367 19.9745 13.6036 21.224 11 21.224Z" fill="#555555"/>
</svg>
