<svg width="33" height="33" viewBox="0 0 33 33" fill="none" xmlns="http://www.w3.org/2000/svg">
    <rect width="33" height="33" rx="5" fill="#3498DB"/>
    <path d="M25.9371 15.958C24.1384 12.4218 20.5774 10.0293 16.4999 10.0293C12.4224 10.0293 8.86043 12.4235 7.06268 15.9584C6.9868 16.1096 6.94727 16.2767 6.94727 16.4461C6.94727 16.6156 6.9868 16.7827 7.06268 16.9339C8.86143 20.4701 12.4224 22.8626 16.4999 22.8626C20.5774 22.8626 24.1394 20.4684 25.9371 16.9336C26.013 16.7823 26.0525 16.6153 26.0525 16.4458C26.0525 16.2763 26.013 16.1093 25.9371 15.958ZM16.4999 21.2585C15.5552 21.2585 14.6318 20.9762 13.8463 20.4474C13.0609 19.9186 12.4487 19.167 12.0871 18.2876C11.7256 17.4083 11.6311 16.4406 11.8153 15.5071C11.9996 14.5736 12.4545 13.7161 13.1225 13.043C13.7905 12.37 14.6416 11.9116 15.5681 11.7259C16.4946 11.5402 17.455 11.6355 18.3277 11.9998C19.2005 12.364 19.9464 12.9809 20.4713 13.7723C20.9961 14.5637 21.2762 15.4941 21.2762 16.446C21.2765 17.078 21.1532 17.704 20.9133 18.288C20.6733 18.872 20.3215 19.4027 19.8779 19.8496C19.4344 20.2965 18.9077 20.651 18.3281 20.8928C17.7485 21.1345 17.1272 21.2588 16.4999 21.2585ZM16.4999 13.2376C16.2157 13.2416 15.9333 13.2842 15.6604 13.3643C15.8854 13.6723 15.9933 14.0514 15.9647 14.4327C15.936 14.8141 15.7727 15.1724 15.5043 15.4429C15.2359 15.7133 14.8803 15.8778 14.5018 15.9067C14.1233 15.9355 13.7471 15.8268 13.4414 15.6001C13.2673 16.2463 13.2987 16.9312 13.5312 17.5585C13.7637 18.1858 14.1856 18.7238 14.7375 19.0968C15.2894 19.4699 15.9435 19.6591 16.6077 19.638C17.2719 19.6168 17.9128 19.3864 18.4402 18.979C18.9676 18.5716 19.355 18.0078 19.5477 17.367C19.7405 16.7262 19.7289 16.0406 19.5147 15.4068C19.3005 14.7729 18.8944 14.2227 18.3536 13.8336C17.8128 13.4445 17.1645 13.2361 16.4999 13.2376Z" fill="white"/>
</svg>
