<svg width="6" height="6" viewBox="0 0 6 6" fill="none" xmlns="http://www.w3.org/2000/svg">
<path d="M5.9184 5.18738L4.74996 4.01914C4.69722 3.96641 4.62573 3.93712 4.55072 3.93712H4.35969C4.68316 3.52348 4.87536 3.00322 4.87536 2.43726C4.87536 1.09091 3.78426 0 2.43768 0C1.0911 0 0 1.09091 0 2.43726C0 3.78362 1.0911 4.87452 2.43768 4.87452C3.00374 4.87452 3.52409 4.68236 3.93779 4.35895V4.54995C3.93779 4.62494 3.96709 4.69642 4.01982 4.74915L5.18827 5.91739C5.29843 6.02754 5.47657 6.02754 5.58556 5.91739L5.91723 5.58578C6.02739 5.47564 6.02739 5.29753 5.9184 5.18738ZM2.43768 3.93712C1.6091 3.93712 0.937569 3.26687 0.937569 2.43726C0.937569 1.60883 1.60793 0.937409 2.43768 0.937409C3.26625 0.937409 3.93779 1.60766 3.93779 2.43726C3.93779 3.2657 3.26743 3.93712 2.43768 3.93712Z" fill="#ACACAC"/>
</svg>
