<?xml version="1.0" encoding="utf-8"?>
<!DOCTYPE svg PUBLIC "-//W3C//DTD SVG 1.1//EN" "http://www.w3.org/Graphics/SVG/1.1/DTD/svg11.dtd" [
	<!ENTITY ns_svg "http://www.w3.org/2000/svg">
	<!ENTITY ns_xlink "http://www.w3.org/1999/xlink">
]>
<svg  version="1.1" id="Layer_1" xmlns="&ns_svg;" xmlns:xlink="&ns_xlink;" width="483.2226563" height="551.4306641"
	 viewBox="0 0 483.2226563 551.4306641" overflow="visible" enable-background="new 0 0 483.2226563 551.4306641"
	 xml:space="preserve">
<path fill-rule="evenodd" clip-rule="evenodd" fill="#096DE4" d="M321.234375,98.1240234
	c-24.9628906-2.3046875-44.3574219-23.8110352-44.3574219-48.9658203C276.8769531,22.0830078,298.9599609,0,326.0351563,0
	s49.1572266,22.0830078,49.1572266,49.1582031c0,8.2568359-2.3037109,16.7055664-6.1445313,23.8105469l-17.515625,246.4667969
	l-180.3969727,0.0488281L97.144043,492.8496094L0,454.7519531l15.0429688-35.8203125l54.3662109,19.625L141,273.2763672
	l167.7294922,1.1269531l2.3027344-31.2128906l-121.4233398,0.0483398v-46.1831055l126.0551758-0.0493164L321.234375,98.1240234z"/>
<path fill-rule="evenodd" clip-rule="evenodd" fill="#096DE4" d="M139.8022461,451.5908203
	c30.4477539,60.1875,94.175293,99.8398438,162.1508789,99.8398438c99.8398438,0,181.2695313-81.4296875,181.2695313-181.2695313
	c0-70.1005859-42.4853516-135.2436523-105.8818359-164.1210938l-4.1025391,53.5375977
	c37.4970703,23.628418,60.6123047,66.262207,60.6123047,110.9506836c0,72.4267578-59.0712891,131.4970703-131.4970703,131.4970703
	c-66.262207,0-122.7646484-50.8515625-130.4697266-116.0869141L139.8022461,451.5908203z"/>
</svg>