<svg width="33" height="33" viewBox="0 0 33 33" fill="none" xmlns="http://www.w3.org/2000/svg">
<rect width="33" height="33" rx="5" fill="#E74C3C"/>
<path d="M10.0714 22.4063C10.0714 22.8289 10.2408 23.2343 10.5421 23.5332C10.8435 23.8321 11.2523 24 11.6786 24H21.3214C21.7477 24 22.1565 23.8321 22.4578 23.5332C22.7592 23.2343 22.9286 22.8289 22.9286 22.4063V11.25H10.0714V22.4063ZM19.1786 13.9063C19.1786 13.7654 19.235 13.6302 19.3355 13.5306C19.4359 13.431 19.5722 13.375 19.7143 13.375C19.8564 13.375 19.9926 13.431 20.0931 13.5306C20.1936 13.6302 20.25 13.7654 20.25 13.9063V21.3438C20.25 21.4846 20.1936 21.6198 20.0931 21.7194C19.9926 21.819 19.8564 21.875 19.7143 21.875C19.5722 21.875 19.4359 21.819 19.3355 21.7194C19.235 21.6198 19.1786 21.4846 19.1786 21.3438V13.9063ZM15.9643 13.9063C15.9643 13.7654 16.0207 13.6302 16.1212 13.5306C16.2217 13.431 16.3579 13.375 16.5 13.375C16.6421 13.375 16.7783 13.431 16.8788 13.5306C16.9793 13.6302 17.0357 13.7654 17.0357 13.9063V21.3438C17.0357 21.4846 16.9793 21.6198 16.8788 21.7194C16.7783 21.819 16.6421 21.875 16.5 21.875C16.3579 21.875 16.2217 21.819 16.1212 21.7194C16.0207 21.6198 15.9643 21.4846 15.9643 21.3438V13.9063ZM12.75 13.9063C12.75 13.7654 12.8064 13.6302 12.9069 13.5306C13.0074 13.431 13.1436 13.375 13.2857 13.375C13.4278 13.375 13.5641 13.431 13.6645 13.5306C13.765 13.6302 13.8214 13.7654 13.8214 13.9063V21.3438C13.8214 21.4846 13.765 21.6198 13.6645 21.7194C13.5641 21.819 13.4278 21.875 13.2857 21.875C13.1436 21.875 13.0074 21.819 12.9069 21.7194C12.8064 21.6198 12.75 21.4846 12.75 21.3438V13.9063ZM23.4643 8.06251H19.4464L19.1317 7.44161C19.065 7.30887 18.9623 7.19721 18.8352 7.11919C18.708 7.04118 18.5614 6.9999 18.4118 7.00001H14.5848C14.4356 6.99944 14.2893 7.04056 14.1625 7.11866C14.0358 7.19676 13.9338 7.30869 13.8683 7.44161L13.5536 8.06251H9.53571C9.39363 8.06251 9.25737 8.11848 9.15691 8.2181C9.05644 8.31773 9 8.45286 9 8.59376V9.65626C9 9.79715 9.05644 9.93228 9.15691 10.0319C9.25737 10.1315 9.39363 10.1875 9.53571 10.1875H23.4643C23.6064 10.1875 23.7426 10.1315 23.8431 10.0319C23.9436 9.93228 24 9.79715 24 9.65626V8.59376C24 8.45286 23.9436 8.31773 23.8431 8.2181C23.7426 8.11848 23.6064 8.06251 23.4643 8.06251Z" fill="white"/>
</svg>
