<svg width="33" height="33" viewBox="0 0 33 33" fill="none" xmlns="http://www.w3.org/2000/svg">
<rect width="33" height="33" rx="5" fill="#EF9C3B"/>
<path d="M25.7862 22.4692C26.395 23.594 25.6308 25 24.4147 25H8.58512C7.36672 25 6.60599 23.5918 7.21366 22.4692L15.1285 7.84322C15.7377 6.71791 17.2634 6.71995 17.8715 7.84322L25.7862 22.4692ZM16.5 19.4453C15.662 19.4453 14.9826 20.1694 14.9826 21.0625C14.9826 21.9556 15.662 22.6797 16.5 22.6797C17.338 22.6797 18.0174 21.9556 18.0174 21.0625C18.0174 20.1694 17.338 19.4453 16.5 19.4453ZM15.0594 13.6324L15.3041 18.4136C15.3155 18.6374 15.4891 18.8125 15.6993 18.8125H17.3007C17.5109 18.8125 17.6845 18.6374 17.6959 18.4136L17.9406 13.6324C17.953 13.3907 17.7724 13.1875 17.5454 13.1875H15.4546C15.2275 13.1875 15.047 13.3907 15.0594 13.6324Z" fill="white"/>
</svg>