<svg width="26" height="24" viewBox="0 0 26 24" fill="none" xmlns="http://www.w3.org/2000/svg">
<path d="M12.6553 5.98135L4.33367 13.7944V22.2269C4.33367 22.4452 4.40976 22.6546 4.54519 22.809C4.68063 22.9634 4.86431 23.0501 5.05584 23.0501L10.1137 23.0352C10.3046 23.0341 10.4874 22.9469 10.622 22.7926C10.7567 22.6384 10.8323 22.4296 10.8323 22.212V17.2875C10.8323 17.0691 10.9084 16.8598 11.0438 16.7054C11.1792 16.551 11.3629 16.4642 11.5544 16.4642H14.4431C14.6346 16.4642 14.8183 16.551 14.9538 16.7054C15.0892 16.8598 15.1653 17.0691 15.1653 17.2875V22.2084C15.165 22.3167 15.1834 22.424 15.2196 22.5242C15.2558 22.6244 15.3089 22.7154 15.376 22.7922C15.4431 22.8689 15.5228 22.9298 15.6106 22.9713C15.6983 23.0128 15.7924 23.0342 15.8874 23.0342L20.9435 23.0501C21.135 23.0501 21.3187 22.9634 21.4542 22.809C21.5896 22.6546 21.6657 22.4452 21.6657 22.2269V13.7887L13.3459 5.98135C13.2481 5.89147 13.1262 5.84246 13.0006 5.84246C12.8749 5.84246 12.7531 5.89147 12.6553 5.98135ZM25.8001 11.2917L22.0268 7.74616V0.619503C22.0268 0.455751 21.9697 0.298706 21.8681 0.182916C21.7665 0.0671256 21.6288 0.0020752 21.4851 0.0020752H18.9575C18.8139 0.0020752 18.6761 0.0671256 18.5746 0.182916C18.473 0.298706 18.4159 0.455751 18.4159 0.619503V4.35546L14.3749 0.565478C13.9872 0.2017 13.5005 0.00280239 12.9983 0.00280239C12.4961 0.00280239 12.0095 0.2017 11.6217 0.565478L0.196564 11.2917C0.141719 11.3434 0.0963433 11.4069 0.0630297 11.4786C0.0297162 11.5503 0.0091177 11.6287 0.0024112 11.7095C-0.00429529 11.7902 0.00302166 11.8717 0.023944 11.9492C0.0448663 12.0267 0.0789839 12.0988 0.124347 12.1613L1.2753 13.7563C1.32054 13.819 1.37619 13.8709 1.43905 13.9091C1.50192 13.9473 1.57077 13.9709 1.64166 13.9787C1.71255 13.9865 1.7841 13.9783 1.8522 13.9545C1.92031 13.9307 1.98363 13.8919 2.03854 13.8402L12.6553 3.8718C12.7531 3.78193 12.8749 3.73292 13.0006 3.73292C13.1262 3.73292 13.2481 3.78193 13.3459 3.8718L23.9631 13.8402C24.0179 13.8919 24.0811 13.9308 24.1491 13.9546C24.2171 13.9785 24.2886 13.9868 24.3594 13.9792C24.4303 13.9715 24.4991 13.9481 24.562 13.9101C24.6248 13.8721 24.6805 13.8204 24.7259 13.7579L25.8768 12.1628C25.9221 12.1 25.9561 12.0275 25.9768 11.9497C25.9974 11.8718 26.0044 11.7901 25.9973 11.7091C25.9902 11.6282 25.9691 11.5496 25.9352 11.478C25.9014 11.4064 25.8554 11.3431 25.8001 11.2917Z" fill="#fff"/>
</svg>
