<svg width="22" height="22" viewBox="0 0 22 22" fill="none" xmlns="http://www.w3.org/2000/svg">
<path d="M22 6.75542V5.7549L20.6004 5.34153L20.4924 4.85302L21.4795 3.88068L20.9688 2.9694L19.5446 3.3217L19.1911 2.9694L19.5594 1.64476L18.6214 1.09988L17.5754 2.08631L17.05 1.93599L16.7063 0.695908H15.5964L15.292 1.93599L14.6978 2.08631L13.7304 1.09988L12.7777 1.61658L13.1754 2.91773L12.7777 3.3123L11.3781 2.96L10.8379 3.85719L11.8545 4.84362L11.7121 5.33214L10.3125 5.69853L10.2978 6.71784L11.7121 7.07014L11.8299 7.63851L10.8429 8.57328L11.3536 9.44228L12.8071 9.08998L13.1607 9.49395L12.7629 10.7575L13.7402 11.3024L14.6929 10.3442L15.2625 10.4804L15.5915 11.8191L16.7013 11.8332L17.0304 10.4804L17.6 10.316L18.6165 11.3306L19.6183 10.7622L19.1862 9.44697L19.5692 9.06649L20.9835 9.47985L21.4893 8.5357L20.4629 7.65261L20.571 7.08423L22 6.75542ZM16.1464 8.8786C14.6094 8.8786 13.3571 7.68549 13.3571 6.21053C13.3571 4.73558 14.6045 3.54247 16.1464 3.54247C17.6884 3.54247 18.9357 4.73558 18.9357 6.21053C18.9357 7.69018 17.6884 8.8786 16.1464 8.8786ZM19.6969 9.64896L22 10.3301V12.2043L19.2942 12.8337L19.0929 13.9L21.0031 15.5582L20.0603 17.3384L17.4085 16.554L16.6915 17.268L17.5116 19.7341L15.6308 20.8003L13.7205 18.8979L12.6549 19.208L12.0362 21.7445L9.95402 21.721L9.33527 19.2033L8.26964 18.9402L6.48214 20.744L4.64554 19.7247L5.39196 17.3525L4.7192 16.5963L1.99375 17.2586L1.02634 15.6239L2.8875 13.8671L2.65179 12.7961L0 12.1338L0.0245536 10.2126L2.65179 9.52213L2.9317 8.59676L1.02143 6.74603L2.03795 5.06439L4.67009 5.72671L5.41652 4.98924L4.67009 2.54664L6.45759 1.5743L8.26473 3.42504L9.37946 3.1385L9.94911 0.695908H12.0312L12.6009 2.85197L11.4911 2.57483L11.1817 2.49497L11.0196 2.76272L10.4795 3.6599L10.3174 3.92295L10.5433 4.13903L11.3879 4.95636L11.3732 5.00333L10.2045 5.30865L9.9 5.38851L9.89509 5.68914L9.88527 6.29509C7.55268 6.78361 5.79464 8.77526 5.79464 11.1568C5.79464 13.8953 8.11741 16.1218 10.9853 16.1218C13.4652 16.1218 15.5375 14.459 16.0531 12.2325L16.7013 12.2419L17.0402 12.2466L17.1187 11.9318L17.3938 10.8045L17.4871 10.7763L18.3268 11.6124L18.5576 11.8426L18.8424 11.6829L19.8442 11.1145L20.129 10.9501L20.0308 10.6448L19.6969 9.64896Z" fill="#fff"/>
</svg>
