<svg width="22" height="25" viewBox="0 0 22 25" fill="none" xmlns="http://www.w3.org/2000/svg">
<path d="M21.3889 3.42424C21.7265 3.42424 22 3.08791 22 2.67267V1.16954C22 0.754295 21.7265 0.417969 21.3889 0.417969H0.611111C0.273472 0.417969 0 0.754295 0 1.16954V2.67267C0 3.08791 0.273472 3.42424 0.611111 3.42424H1.22146V21.4619H0.611111C0.273472 21.4619 0 21.7982 0 22.2134V23.7166C0 24.1318 0.273472 24.4681 0.611111 24.4681H9.77778V20.7103C9.77778 20.2969 10.0528 19.9587 10.3889 19.9587H11.6111C11.9472 19.9587 12.2222 20.2969 12.2222 20.7103V24.4681H21.3889C21.7265 24.4681 22 24.1318 22 23.7166V22.2134C22 21.7982 21.7265 21.4619 21.3889 21.4619H20.7778V3.42424H21.3889ZM9.77778 5.52863C9.77778 5.228 10.0222 4.92737 10.2667 4.92737H11.7333C11.9778 4.92737 12.2222 5.228 12.2222 5.52863V7.33239C12.2222 7.63302 11.9778 7.93364 11.7333 7.93364H10.2667C10.0222 7.93364 9.77778 7.63302 9.77778 7.33239V5.52863ZM9.77778 10.038C9.77778 9.7374 10.0222 9.43678 10.2667 9.43678H11.7333C11.9778 9.43678 12.2222 9.7374 12.2222 10.038V11.8418C12.2222 12.1424 11.9778 12.443 11.7333 12.443H10.2667C10.0222 12.443 9.77778 12.1424 9.77778 11.8418V10.038ZM4.88889 5.52863C4.88889 5.228 5.13333 4.92737 5.37778 4.92737H6.84444C7.08889 4.92737 7.33333 5.228 7.33333 5.52863V7.33239C7.33333 7.63302 7.08889 7.93364 6.84444 7.93364H5.37778C5.13333 7.93364 4.88889 7.63302 4.88889 7.33239V5.52863ZM6.84444 12.443H5.37778C5.13333 12.443 4.88889 12.1424 4.88889 11.8418V10.038C4.88889 9.7374 5.13333 9.43678 5.37778 9.43678H6.84444C7.08889 9.43678 7.33333 9.7374 7.33333 10.038V11.8418C7.33333 12.1424 7.08889 12.443 6.84444 12.443ZM7.33333 18.4556C7.33333 15.9651 8.97493 13.9462 11 13.9462C13.0251 13.9462 14.6667 15.9651 14.6667 18.4556H7.33333ZM17.1111 11.8418C17.1111 12.1424 16.8667 12.443 16.6222 12.443H15.1556C14.9111 12.443 14.6667 12.1424 14.6667 11.8418V10.038C14.6667 9.7374 14.9111 9.43678 15.1556 9.43678H16.6222C16.8667 9.43678 17.1111 9.7374 17.1111 10.038V11.8418ZM17.1111 7.33239C17.1111 7.63302 16.8667 7.93364 16.6222 7.93364H15.1556C14.9111 7.93364 14.6667 7.63302 14.6667 7.33239V5.52863C14.6667 5.228 14.9111 4.92737 15.1556 4.92737H16.6222C16.8667 4.92737 17.1111 5.228 17.1111 5.52863V7.33239Z" fill="#fff"/>
</svg>
